<mxfile host="app.diagrams.net" agent="Mozilla/5.0 (Windows NT 10.0; Win64; x64) AppleWebKit/537.36 (KHTML, like Gecko) Chrome/130.0.0.0 Safari/537.36" version="24.8.0">
  <diagram name="Page-1" id="dII-GsZN4UyNTXwKCkAz">
    <mxGraphModel dx="1050" dy="522" grid="1" gridSize="10" guides="1" tooltips="1" connect="1" arrows="1" fold="1" page="1" pageScale="1" pageWidth="850" pageHeight="1100" math="0" shadow="0">
      <root>
        <mxCell id="0" />
        <mxCell id="1" parent="0" />
        <mxCell id="wHakukRragAsUwI3LYUK-2" value="" style="rounded=1;whiteSpace=wrap;html=1;" vertex="1" parent="1">
          <mxGeometry x="30" y="120" width="120" height="210" as="geometry" />
        </mxCell>
        <mxCell id="wHakukRragAsUwI3LYUK-7" value="" style="endArrow=none;dashed=1;html=1;dashPattern=1 3;strokeWidth=2;rounded=0;" edge="1" parent="1">
          <mxGeometry width="50" height="50" relative="1" as="geometry">
            <mxPoint x="89.5" y="280" as="sourcePoint" />
            <mxPoint x="89.5" y="240" as="targetPoint" />
            <Array as="points">
              <mxPoint x="90" y="260" />
            </Array>
          </mxGeometry>
        </mxCell>
        <mxCell id="wHakukRragAsUwI3LYUK-8" value="" style="rounded=1;whiteSpace=wrap;html=1;" vertex="1" parent="1">
          <mxGeometry x="190" y="120" width="90" height="210" as="geometry" />
        </mxCell>
        <mxCell id="wHakukRragAsUwI3LYUK-9" value="" style="rounded=1;whiteSpace=wrap;html=1;" vertex="1" parent="1">
          <mxGeometry x="660" y="120" width="160" height="210" as="geometry" />
        </mxCell>
        <mxCell id="wHakukRragAsUwI3LYUK-10" value="" style="rounded=1;whiteSpace=wrap;html=1;" vertex="1" parent="1">
          <mxGeometry x="465" y="120" width="150" height="210" as="geometry" />
        </mxCell>
        <mxCell id="wHakukRragAsUwI3LYUK-11" value="" style="rounded=1;whiteSpace=wrap;html=1;" vertex="1" parent="1">
          <mxGeometry x="325" y="120" width="100" height="210" as="geometry" />
        </mxCell>
        <mxCell id="wHakukRragAsUwI3LYUK-12" value="1" style="shape=cylinder3;whiteSpace=wrap;html=1;boundedLbl=1;backgroundOutline=1;size=15;" vertex="1" parent="1">
          <mxGeometry x="60" y="130" width="60" height="50" as="geometry" />
        </mxCell>
        <mxCell id="wHakukRragAsUwI3LYUK-13" value="2" style="shape=cylinder3;whiteSpace=wrap;html=1;boundedLbl=1;backgroundOutline=1;size=15;" vertex="1" parent="1">
          <mxGeometry x="60" y="190" width="60" height="50" as="geometry" />
        </mxCell>
        <mxCell id="wHakukRragAsUwI3LYUK-14" value="n" style="shape=cylinder3;whiteSpace=wrap;html=1;boundedLbl=1;backgroundOutline=1;size=15;" vertex="1" parent="1">
          <mxGeometry x="60" y="270" width="60" height="50" as="geometry" />
        </mxCell>
        <mxCell id="wHakukRragAsUwI3LYUK-16" value="" style="shape=cylinder3;whiteSpace=wrap;html=1;boundedLbl=1;backgroundOutline=1;size=15;" vertex="1" parent="1">
          <mxGeometry x="460" y="360" width="160" height="100" as="geometry" />
        </mxCell>
        <mxCell id="wHakukRragAsUwI3LYUK-17" value="" style="shape=cylinder3;whiteSpace=wrap;html=1;boundedLbl=1;backgroundOutline=1;size=15;" vertex="1" parent="1">
          <mxGeometry x="660" y="360" width="160" height="100" as="geometry" />
        </mxCell>
        <mxCell id="wHakukRragAsUwI3LYUK-19" value="" style="endArrow=classic;html=1;rounded=0;" edge="1" parent="1">
          <mxGeometry width="50" height="50" relative="1" as="geometry">
            <mxPoint x="150" y="224.5" as="sourcePoint" />
            <mxPoint x="190" y="224.5" as="targetPoint" />
          </mxGeometry>
        </mxCell>
        <mxCell id="wHakukRragAsUwI3LYUK-20" value="" style="endArrow=classic;html=1;rounded=0;" edge="1" parent="1">
          <mxGeometry width="50" height="50" relative="1" as="geometry">
            <mxPoint x="425" y="224.5" as="sourcePoint" />
            <mxPoint x="465" y="224.5" as="targetPoint" />
          </mxGeometry>
        </mxCell>
        <mxCell id="wHakukRragAsUwI3LYUK-21" value="" style="endArrow=classic;html=1;rounded=0;" edge="1" parent="1" target="wHakukRragAsUwI3LYUK-11">
          <mxGeometry width="50" height="50" relative="1" as="geometry">
            <mxPoint x="280" y="224.5" as="sourcePoint" />
            <mxPoint x="320" y="224.5" as="targetPoint" />
          </mxGeometry>
        </mxCell>
        <mxCell id="wHakukRragAsUwI3LYUK-22" value="" style="endArrow=classic;html=1;rounded=0;entryX=0;entryY=0.498;entryDx=0;entryDy=0;entryPerimeter=0;" edge="1" parent="1" target="wHakukRragAsUwI3LYUK-9">
          <mxGeometry width="50" height="50" relative="1" as="geometry">
            <mxPoint x="615" y="224.5" as="sourcePoint" />
            <mxPoint x="655" y="224.5" as="targetPoint" />
            <Array as="points">
              <mxPoint x="615" y="225" />
            </Array>
          </mxGeometry>
        </mxCell>
        <mxCell id="wHakukRragAsUwI3LYUK-24" value="" style="endArrow=classic;html=1;rounded=0;" edge="1" parent="1">
          <mxGeometry width="50" height="50" relative="1" as="geometry">
            <mxPoint x="539.5" y="330" as="sourcePoint" />
            <mxPoint x="539.5" y="360" as="targetPoint" />
          </mxGeometry>
        </mxCell>
        <mxCell id="wHakukRragAsUwI3LYUK-28" value="" style="endArrow=classic;html=1;rounded=0;" edge="1" parent="1">
          <mxGeometry width="50" height="50" relative="1" as="geometry">
            <mxPoint x="739.5" y="330" as="sourcePoint" />
            <mxPoint x="739.5" y="360" as="targetPoint" />
          </mxGeometry>
        </mxCell>
      </root>
    </mxGraphModel>
  </diagram>
</mxfile>
